<svg width="20" height="20" viewBox="0 0 20 20" fill="none" xmlns="http://www.w3.org/2000/svg">
<path opacity="0.3" fill-rule="evenodd" clip-rule="evenodd" d="M10 20C15.5228 20 20 15.5228 20 10C20 4.47715 15.5228 0 10 0C4.47715 0 0 4.47715 0 10C0 15.5228 4.47715 20 10 20Z" fill="#169D00"/>
<path d="M14.769 5.81769C15.1458 5.41393 15.7786 5.39211 16.1823 5.76895C16.5861 6.14578 16.6079 6.77857 16.2311 7.18232L9.23107 14.6823C8.86546 15.074 8.25606 15.108 7.84923 14.7593L4.34923 11.7593C3.9299 11.3998 3.88134 10.7685 4.24076 10.3492C4.60018 9.92989 5.23148 9.88132 5.65081 10.2407L8.42301 12.6169L14.769 5.81769Z" fill="#169D00"/>
</svg>
