<svg width="200" height="200" viewBox="0 0 200 200" fill="none" xmlns="http://www.w3.org/2000/svg">
<rect x="0.25" y="0.25" width="199.5" height="199.5" rx="15.75" stroke="#D4D4D4" stroke-width="0.5"/>
<path fill-rule="evenodd" clip-rule="evenodd" d="M114.235 84.9299C114.047 84.9299 113.859 84.8831 113.695 84.7894C109.183 82.4699 105.283 81.4859 100.607 81.4859C95.9544 81.4859 91.537 82.5871 87.5191 84.7894C86.9551 85.0939 86.2502 84.8831 85.9213 84.3208C85.6158 83.7585 85.8273 83.0322 86.3912 82.7276C90.7616 80.3614 95.555 79.1431 100.607 79.1431C105.612 79.1431 109.982 80.2442 114.775 82.7042C115.363 83.0088 115.574 83.7116 115.269 84.2739C115.057 84.6956 114.658 84.9299 114.235 84.9299ZM80.611 97.2299C80.376 97.2299 80.141 97.1596 79.9296 97.0191C79.3891 96.6442 79.2717 95.9179 79.6476 95.3791C81.9738 92.0991 84.9344 89.5219 88.4589 87.7179C95.8369 83.9225 105.283 83.8991 112.684 87.6945C116.209 89.4985 119.169 92.0522 121.496 95.3088C121.871 95.8242 121.754 96.5739 121.214 96.9488C120.673 97.3236 119.945 97.2065 119.569 96.6676C117.454 93.7156 114.775 91.3962 111.603 89.7796C104.86 86.3356 96.2364 86.3356 89.5163 89.8031C86.3207 91.4431 83.6421 93.7859 81.5274 96.7379C81.3394 97.0659 80.9869 97.2299 80.611 97.2299ZM95.2965 125.508C94.9911 125.508 94.6856 125.391 94.4741 125.157C92.4299 123.118 91.3256 121.806 89.7513 118.972C88.13 116.09 87.2841 112.576 87.2841 108.804C87.2841 101.845 93.2523 96.1756 100.583 96.1756C107.914 96.1756 113.883 101.845 113.883 108.804C113.883 109.46 113.366 109.975 112.708 109.975C112.05 109.975 111.533 109.46 111.533 108.804C111.533 103.134 106.622 98.5185 100.583 98.5185C94.5446 98.5185 89.6338 103.134 89.6338 108.804C89.6338 112.177 90.3857 115.293 91.819 117.824C93.3228 120.518 94.3566 121.666 96.1659 123.493C96.6123 123.962 96.6123 124.688 96.1659 125.157C95.9074 125.391 95.602 125.508 95.2965 125.508ZM112.144 121.174C109.348 121.174 106.88 120.471 104.86 119.089C101.359 116.722 99.2675 112.88 99.2675 108.804C99.2675 108.148 99.7844 107.632 100.442 107.632C101.1 107.632 101.617 108.148 101.617 108.804C101.617 112.107 103.309 115.223 106.176 117.144C107.844 118.269 109.794 118.808 112.144 118.808C112.708 118.808 113.648 118.737 114.587 118.573C115.222 118.456 115.833 118.878 115.95 119.534C116.068 120.166 115.645 120.776 114.987 120.893C113.648 121.15 112.473 121.174 112.144 121.174ZM107.421 126C107.327 126 107.209 125.977 107.115 125.953C103.379 124.922 100.936 123.54 98.3746 121.033C95.085 117.777 93.2758 113.442 93.2758 108.804C93.2758 105.008 96.5184 101.916 100.513 101.916C104.507 101.916 107.75 105.008 107.75 108.804C107.75 111.31 109.935 113.349 112.637 113.349C115.339 113.349 117.525 111.31 117.525 108.804C117.525 99.9711 109.888 92.8019 100.489 92.8019C93.8162 92.8019 87.707 96.5036 84.9579 102.244C84.0415 104.141 83.5716 106.367 83.5716 108.804C83.5716 110.631 83.7361 113.513 85.1459 117.261C85.3808 117.87 85.0754 118.55 84.4645 118.761C83.8535 118.995 83.1721 118.667 82.9607 118.081C81.8093 115.012 81.2454 111.966 81.2454 108.804C81.2454 105.992 81.7858 103.438 82.8432 101.213C85.9683 94.6762 92.8998 90.4356 100.489 90.4356C111.18 90.4356 119.874 98.6591 119.874 108.78C119.874 112.576 116.632 115.668 112.637 115.668C108.643 115.668 105.4 112.576 105.4 108.78C105.4 106.273 103.215 104.235 100.513 104.235C97.8107 104.235 95.6255 106.273 95.6255 108.78C95.6255 112.786 97.1763 116.535 100.019 119.346C102.252 121.549 104.39 122.767 107.703 123.681C108.337 123.845 108.69 124.501 108.525 125.11C108.408 125.649 107.914 126 107.421 126Z" fill="#004FD4"/>
</svg>
