<?xml version="1.0" encoding="UTF-8"?>
<svg fill="#B3C9F2" width="36" height="36" version="1.1" viewBox="0 0 100 100" xmlns="http://www.w3.org/2000/svg">
    <path d="m94.824 26.633c-0.21484-0.57422-0.65234-1.0938-1.207-1.3711l-40-20c-0.70313-0.35156-1.5312-0.35156-2.2344 0l-40 20c-0.81641 0.41016-1.3828 1.3281-1.3828 2.2383v38.453l-3.6172 1.8086c-0.81641 0.41016-1.3828 1.3281-1.3828 2.2383v15c0 0.94531 0.53516 1.8125 1.3828 2.2344l15 7.5c0.33203 0.16797 0.74609 0.26562 1.1172 0.26562s0.78516-0.097656 1.1172-0.26562l15-7.5c0.84766-0.42188 1.3828-1.2891 1.3828-2.2344v-0.95312l11.383 5.6914c0.33203 0.16406 0.74609 0.26172 1.1172 0.26172s0.78516-0.097656 1.1172-0.26562l40-20c0.84766-0.42188 1.3828-1.2891 1.3828-2.2344v-40c0-0.3125-0.066406-0.57812-0.17578-0.86719-0.21484-0.57422 0.10938 0.28906 0 0-0.21484-0.57422 0.10938 0.28906 0 0-0.21484-0.57422 0.10938 0.28906 0 0-0.21484-0.57422 0.10938 0.28906 0 0-0.21484-0.57422 0.10938 0.28906 0 0zm-79.824 4.9141l15 7.5v14.41l-15-7.5zm17.5-11.25l14.41 7.2031-14.41 7.2031-14.41-7.2031zm54.41 7.2031l-14.41 7.2031-14.41-7.2031 14.41-7.2031zm3.0898 18.453l-15 7.5v-14.406l15-7.5zm-55-6.9062l15-7.5v14.41l-15 7.5zm17.5 11.25l14.41 7.2031-14.41 7.2031-14.41-7.2031zm2.5-4.3438v-14.406l15 7.5v14.41zm-2.5-35.656l14.41 7.2031-14.41 7.2031-14.41-7.2031zm-37.5 41.25l15 7.5v4.4102l-6.3828-3.1914c-0.70313-0.35156-1.5312-0.35156-2.2344 0l-6.3828 3.1875zm20 25.953v5.9531l-10 5v-9.4102l10-5zm-12.5-2.7969l-9.4102-4.7031 9.4102-4.7031 9.4102 4.7031zm-12.5-0.65625l10 5v9.4102l-10-5zm30-4.0469c0-0.91016-0.56641-1.8281-1.3828-2.2344l-3.6172-1.8125v-4.4102l15 7.5v14.41l-10-5zm15-0.95312l15-7.5v14.41l-15 7.5zm20 4.4062v-14.41l15-7.5v14.41z"/>
</svg>
