<svg width="127" height="162" viewBox="0 0 127 162" fill="none" xmlns="http://www.w3.org/2000/svg">
<path d="M75.7367 161.02C58.627 161.504 42.7468 153.766 33.5732 140.303C25.3067 128.091 2.20689 89.3457 2.20689 89.3457C-0.36488 85.1911 0.77249 79.6762 4.52771 76.9628C6.33066 75.8066 8.38619 75.2013 10.9468 75.6975C13.1056 76.0442 14.8164 77.5945 16.1253 78.9952C16.1253 78.9952 16.5272 79.1447 16.3779 79.5459L32.2454 99.6117C33.1524 100.863 34.9093 101.06 36.4136 100.706C37.9179 100.352 38.5152 98.7477 38.7106 96.9932L37.2017 29.7411C37.2366 24.7295 40.8886 21.064 45.6541 20.5537C47.411 20.7508 49.4204 21.4986 51.1312 23.0489C52.842 24.5992 53.8523 26.8023 54.3114 29.2571L54.9737 65.5896C54.9276 66.9428 56.2365 68.3435 57.0403 68.6427C57.4422 68.7922 57.8441 68.9418 58.3953 68.6902C60.1522 68.8872 61.8519 66.7791 62.0473 65.0247L61.3389 30.0454L61.4882 29.6442C61.6376 29.243 61.2356 29.0934 61.385 28.6922L61.2262 9.44819C61.2611 4.43657 64.9131 0.771096 69.6786 0.26076C71.9867 0.206198 73.9961 0.95406 75.7069 2.50434C77.4177 4.05463 78.428 6.25778 78.3359 8.96419L78.4264 22.2446L78.7551 64.3911C78.709 65.7443 80.0179 67.145 80.8217 67.4442C81.2236 67.5938 81.6255 67.7433 82.1767 67.4917C83.9336 67.6888 85.6333 65.5806 85.8287 63.8262L85.4539 23.0329L85.3507 22.0809C85.3856 17.0693 89.0376 13.4038 93.8031 12.8935C96.1112 12.8389 98.1206 13.5868 99.8314 15.1371C101.542 16.6874 102.553 18.8905 102.46 21.5969L102.826 42.745C102.676 43.1462 102.676 43.1462 103.078 43.2958L103.018 72.9643C102.822 74.7187 104.935 76.4185 106.692 76.6156C108.449 76.8127 110.149 74.7045 110.344 72.9501L108.9 43.6353C108.935 38.6237 112.587 34.9583 117.353 34.4479C119.661 34.3934 121.67 35.1412 123.381 36.6915C125.092 38.2418 126.102 40.4449 126.01 43.1513L126.508 108.2C126.345 136.917 103.836 160.514 75.7367 161.02Z" fill="#004FD4"/>
<circle cx="10" cy="85" r="5" fill="#FFCD5B"/>
</svg>
