<svg width="84" height="24" viewBox="0 0 84 24" fill="none" xmlns="http://www.w3.org/2000/svg">
  <path d="M9.36536 6.83887H13.7864V17.3897C13.7864 21.5846 11.0396 23.949 6.98478 23.949C2.87763 23.949 0 21.5338 0 17.2372H4.39492C4.42108 19.0423 5.28437 20.1355 6.93246 20.1355C8.55439 20.1355 9.36536 19.0677 9.36536 17.3897V6.83887Z" fill="#2F373F"/>
  <path d="M32.7782 23.7193H28.3571V21.5837C27.2584 23.0074 25.3487 23.9227 23.1774 23.9227C19.1225 23.9227 16.2188 21.3549 16.2188 16.7278V6.8125H20.6137V16.1176C20.6137 18.8379 22.1571 20.2871 24.4592 20.2871C26.8398 20.2871 28.3571 18.8125 28.3571 16.1176V6.83792H32.7782V23.7193Z" fill="#2F373F"/>
  <path d="M39.6063 23.7196H35.2114V6.83822H39.6063V9.45687C40.7051 7.72805 42.5101 6.58398 44.943 6.58398V11.0586H43.792C41.2021 11.0586 39.6325 12.0247 39.6325 15.3043V23.7196H39.6063Z" fill="#2F373F"/>
  <path d="M59.5415 14.4145C59.5415 11.6941 57.998 10.245 55.6959 10.245C53.3153 10.245 51.7719 11.7195 51.7719 14.4145V23.745H47.377V6.83819H51.7719V8.94836C52.8968 7.52463 54.7803 6.60938 57.0039 6.60938C61.0587 6.60938 63.9364 9.17717 63.9364 13.8297V23.745H59.5415V14.4145Z" fill="#2F373F"/>
  <path d="M74.7143 23.9993C69.6654 23.9993 66.0029 20.5925 66.0029 15.2789C66.0029 9.93995 69.5869 6.55859 74.7143 6.55859C79.737 6.55859 83.2687 9.88911 83.2687 14.8976C83.2687 15.4569 83.2425 15.9908 83.1379 16.5501H70.4502C70.6594 19.0417 72.4383 20.44 74.6096 20.44C76.4932 20.44 77.5134 19.5247 78.0889 18.4061H82.8239C81.9083 21.5332 79.0307 23.9993 74.7143 23.9993ZM70.5025 13.7027H78.743C78.6906 11.4908 76.8594 10.0671 74.6096 10.0671C72.4907 10.0671 70.8426 11.3891 70.5025 13.7027Z" fill="#2F373F"/>
  <path d="M9.81142 4.93221C14.9912 4.93221 16.2468 0.711865 16.2468 0H15.8021C10.6224 0 9.3667 4.22034 9.3667 4.93221H9.81142Z" fill="#2F373F"/>
</svg>
