<?xml version="1.0" encoding="UTF-8"?>
<svg fill="#B3C9F2" width="36" height="36" version="1.1" viewBox="0 0 100 100" xmlns="http://www.w3.org/2000/svg">
    <g>
        <path fill="#004FD4" d="m45.988 70.832c-3.4531 0-6.25 2.8008-6.25 6.25 0 3.4531 2.7969 6.25 6.25 6.25s6.25-2.7969 6.25-6.25c0-3.4492-2.8008-6.25-6.25-6.25zm0 8.3359c-1.1523 0-2.0859-0.9375-2.0859-2.0859 0-1.1484 0.93359-2.082 2.0859-2.082 1.1484 0 2.082 0.93359 2.082 2.082-0.003906 1.1484-0.9375 2.0859-2.082 2.0859z"/>
        <path d="m54.316 8.332h-16.664v56.25h16.664zm-4.1641 52.086h-8.3359v-47.918h8.3359z"/>
        <path d="m93.598 97.578l-8.1289-97.578-25.012 2.082h-54.055v97.918h54.164v-47.559l3.9648 47.559zm-83.031-1.7461v-89.582h20.836v89.582zm45.836 0h-20.836v-89.582h20.836zm25.258-91.332l7.4375 89.277-20.762 1.7266-7.4336-89.277z"/>
        <path d="m77.168 69.703c-0.17578 0-0.35156 0.007813-0.52734 0.019531-3.4375 0.28516-5.9922 3.3047-5.7109 6.7461 0.27344 3.2656 3.0078 5.7305 6.2227 5.7305 0.17578 0 0.35156-0.007813 0.52344-0.019531 3.4414-0.28516 5.9961-3.3086 5.7109-6.7461-0.26953-3.2656-3-5.7305-6.2188-5.7305zm1.5859 7.5938c-0.21094 0.24609-0.67188 0.66797-1.418 0.73047-0.0625 0.007812-0.12109 0.007812-0.17969 0.007812-1.0703 0-1.9805-0.83594-2.0703-1.9102-0.09375-1.1406 0.76172-2.1523 1.9062-2.2461 0.058593-0.007812 0.11719-0.007812 0.17969-0.007812 1.0703 0 1.9766 0.83984 2.0703 1.9141 0.058593 0.74219-0.28125 1.2656-0.48828 1.5117z"/>
        <path fill="#004FD4" d="m79.762 6.7461l-16.609 1.3828 4.668 56.055 16.609-1.3789zm-12.113 5.1914l8.3047-0.69141 3.9805 47.75-8.3086 0.69141z"/>
        <path d="m20.988 70.832c-3.4531 0-6.25 2.8008-6.25 6.25 0 3.4531 2.7969 6.25 6.25 6.25s6.25-2.7969 6.25-6.25c0-3.4492-2.8008-6.25-6.25-6.25zm0 8.3359c-1.1523 0-2.0859-0.9375-2.0859-2.0859 0-1.1484 0.93359-2.082 2.0859-2.082 1.1484 0 2.082 0.93359 2.082 2.082-0.003906 1.1484-0.9375 2.0859-2.082 2.0859z"/>
        <path fill="#004FD4" d="m12.652 64.582h16.664v-56.25h-16.664zm4.1641-52.082h8.3359v47.918h-8.3359z"/>
    </g>
</svg>
