<svg width="200" height="200" viewBox="0 0 200 200" fill="none" xmlns="http://www.w3.org/2000/svg">
<rect x="0.5" y="0.5" width="199" height="199" rx="15.5" stroke="#169D00"/>
<path fill-rule="evenodd" clip-rule="evenodd" d="M114.235 82.9299C114.047 82.9299 113.859 82.8831 113.694 82.7894C109.183 80.4699 105.282 79.4859 100.607 79.4859C95.9542 79.4859 91.5368 80.5871 87.5188 82.7894C86.9549 83.0939 86.25 82.8831 85.921 82.3208C85.6156 81.7585 85.827 81.0322 86.391 80.7276C90.7614 78.3614 95.5547 77.1431 100.607 77.1431C105.611 77.1431 109.982 78.2442 114.775 80.7042C115.363 81.0088 115.574 81.7116 115.269 82.2739C115.057 82.6956 114.658 82.9299 114.235 82.9299ZM80.6107 95.2299C80.3758 95.2299 80.1408 95.1596 79.9293 95.0191C79.3889 94.6442 79.2714 93.9179 79.6474 93.3791C81.9736 90.0991 84.9342 87.5219 88.4587 85.7179C95.8367 81.9225 105.282 81.8991 112.684 85.6945C116.208 87.4985 119.169 90.0522 121.495 93.3088C121.871 93.8242 121.754 94.5739 121.213 94.9488C120.673 95.3236 119.944 95.2065 119.569 94.6676C117.454 91.7156 114.775 89.3962 111.603 87.7796C104.86 84.3356 96.2361 84.3356 89.516 87.8031C86.3205 89.4431 83.6418 91.7859 81.5271 94.7379C81.3391 95.0659 80.9867 95.2299 80.6107 95.2299ZM95.2963 123.508C94.9908 123.508 94.6854 123.391 94.4739 123.157C92.4297 121.118 91.3253 119.806 89.751 116.972C88.1297 114.09 87.2838 110.576 87.2838 106.804C87.2838 99.8454 93.252 94.1756 100.583 94.1756C107.914 94.1756 113.882 99.8454 113.882 106.804C113.882 107.46 113.365 107.975 112.707 107.975C112.05 107.975 111.533 107.46 111.533 106.804C111.533 101.134 106.622 96.5185 100.583 96.5185C94.5444 96.5185 89.6335 101.134 89.6335 106.804C89.6335 110.177 90.3854 113.293 91.8187 115.824C93.3225 118.518 94.3564 119.666 96.1657 121.493C96.6121 121.962 96.6121 122.688 96.1657 123.157C95.9072 123.391 95.6017 123.508 95.2963 123.508ZM112.144 119.174C109.347 119.174 106.88 118.471 104.859 117.089C101.358 114.722 99.2672 110.88 99.2672 106.804C99.2672 106.148 99.7842 105.632 100.442 105.632C101.1 105.632 101.617 106.148 101.617 106.804C101.617 110.107 103.309 113.223 106.175 115.144C107.844 116.269 109.794 116.808 112.144 116.808C112.707 116.808 113.647 116.737 114.587 116.573C115.222 116.456 115.833 116.878 115.95 117.534C116.068 118.166 115.645 118.776 114.987 118.893C113.647 119.15 112.472 119.174 112.144 119.174ZM107.421 124C107.327 124 107.209 123.977 107.115 123.953C103.379 122.922 100.936 121.54 98.3744 119.033C95.0848 115.777 93.2755 111.442 93.2755 106.804C93.2755 103.008 96.5181 99.9156 100.513 99.9156C104.507 99.9156 107.75 103.008 107.75 106.804C107.75 109.31 109.935 111.349 112.637 111.349C115.339 111.349 117.524 109.31 117.524 106.804C117.524 97.9711 109.888 90.8019 100.489 90.8019C93.816 90.8019 87.7068 94.5036 84.9577 100.244C84.0413 102.141 83.5713 104.367 83.5713 106.804C83.5713 108.631 83.7358 111.513 85.1456 115.261C85.3806 115.87 85.0751 116.55 84.4642 116.761C83.8533 116.995 83.1719 116.667 82.9604 116.081C81.8091 113.012 81.2451 109.966 81.2451 106.804C81.2451 103.992 81.7856 101.438 82.8429 99.2128C85.968 92.6762 92.8996 88.4356 100.489 88.4356C111.18 88.4356 119.874 96.6591 119.874 106.78C119.874 110.576 116.631 113.668 112.637 113.668C108.642 113.668 105.4 110.576 105.4 106.78C105.4 104.273 103.215 102.235 100.513 102.235C97.8104 102.235 95.6252 104.273 95.6252 106.78C95.6252 110.786 97.176 114.535 100.019 117.346C102.251 119.549 104.39 120.767 107.703 121.681C108.337 121.845 108.689 122.501 108.525 123.11C108.408 123.649 107.914 124 107.421 124Z" fill="#169D00"/>
</svg>
