<svg width="127" height="162" viewBox="0 0 127 162" fill="none" xmlns="http://www.w3.org/2000/svg">
<path d="M51.4723 161.02C68.582 161.504 84.4622 153.766 93.6358 140.303C101.902 128.091 125.002 89.3457 125.002 89.3457C127.574 85.1911 126.436 79.6762 122.681 76.9628C120.878 75.8066 118.823 75.2013 116.262 75.6975C114.103 76.0442 112.393 77.5945 111.084 78.9952C111.084 78.9952 110.682 79.1447 110.831 79.5459L94.9636 99.6117C94.0566 100.863 92.2997 101.06 90.7954 100.706C89.2911 100.352 88.6938 98.7477 88.4984 96.9932L90.0073 29.7411C89.9723 24.7295 86.3204 21.064 81.5549 20.5537C79.798 20.7508 77.7886 21.4986 76.0777 23.0489C74.3669 24.5992 73.3567 26.8023 72.8976 29.2571L72.2353 65.5896C72.2813 66.9428 70.9724 68.3435 70.1687 68.6427C69.7668 68.7922 69.3649 68.9418 68.8137 68.6902C67.0568 68.8872 65.3571 66.7791 65.1617 65.0247L65.8701 30.0454L65.7207 29.6442C65.5714 29.243 65.9733 29.0934 65.824 28.6922L65.9828 9.44819C65.9479 4.43657 62.2959 0.771096 57.5304 0.260761C55.2223 0.206199 53.2129 0.954059 51.502 2.50434C49.7912 4.05463 48.7809 6.25778 48.8731 8.96419L48.7826 22.2446L48.4539 64.3911C48.4999 65.7443 47.191 67.145 46.3873 67.4442C45.9854 67.5938 45.5835 67.7433 45.0323 67.4917C43.2754 67.6888 41.5757 65.5806 41.3803 63.8262L41.7551 23.0329L41.8583 22.0809C41.8233 17.0693 38.1714 13.4038 33.4059 12.8935C31.0978 12.8389 29.0884 13.5868 27.3775 15.1371C25.6667 16.6874 24.6565 18.8905 24.7486 21.5969L24.3833 42.745C24.5326 43.1462 24.5326 43.1462 24.1307 43.2958L24.1912 72.9643C24.3866 74.7187 22.2739 76.4185 20.517 76.6156C18.7601 76.8127 17.0604 74.7045 16.865 72.9501L18.3089 43.6353C18.2739 38.6237 14.622 34.9583 9.85646 34.4479C7.54837 34.3934 5.53892 35.1412 3.82811 36.6915C2.1173 38.2418 1.10703 40.4449 1.19917 43.1513L0.700551 108.2C0.864251 136.917 23.3734 160.514 51.4723 161.02Z" fill="#004FD4"/>
</svg>
