<svg width="127" height="162" viewBox="0 0 127 162" fill="none" xmlns="http://www.w3.org/2000/svg">
<path d="M75.3636 161.02C58.2539 161.504 42.3737 153.766 33.2002 140.303C24.9337 128.091 1.83384 89.3457 1.83384 89.3457C-0.737928 85.1911 0.399443 79.6762 4.15466 76.9628C5.95761 75.8066 8.01314 75.2013 10.5738 75.6975C12.7326 76.0442 14.4434 77.5945 15.7523 78.9952C15.7523 78.9952 16.1542 79.1447 16.0049 79.5459L31.8723 99.6117C32.7793 100.863 34.5362 101.06 36.0405 100.706C37.5448 100.352 38.1421 98.7477 38.3375 96.9932L36.8286 29.7411C36.8636 24.7295 40.5156 21.064 45.2811 20.5537C47.0379 20.7508 49.0474 21.4986 50.7582 23.0489C52.469 24.5992 53.4793 26.8023 53.9383 29.2571L54.6007 65.5896C54.5546 66.9428 55.8635 68.3435 56.6673 68.6427C57.0692 68.7922 57.4711 68.9418 58.0223 68.6902C59.7792 68.8872 61.4789 66.7791 61.6742 65.0247L60.9659 30.0454L61.1152 29.6442C61.2645 29.243 60.8626 29.0934 61.0119 28.6922L60.8531 9.44819C60.8881 4.43657 64.54 0.771096 69.3055 0.260761C71.6136 0.206199 73.6231 0.954059 75.3339 2.50434C77.0447 4.05463 78.055 6.25778 77.9629 8.96419L78.0534 22.2446L78.3821 64.3911C78.336 65.7443 79.6449 67.145 80.4487 67.4442C80.8506 67.5938 81.2525 67.7433 81.8037 67.4917C83.5606 67.6888 85.2603 65.5806 85.4557 63.8262L85.0809 23.0329L84.9776 22.0809C85.0126 17.0693 88.6646 13.4038 93.43 12.8935C95.7381 12.8389 97.7476 13.5868 99.4584 15.1371C101.169 16.6874 102.179 18.8905 102.087 21.5969L102.453 42.745C102.303 43.1462 102.303 43.1462 102.705 43.2958L102.645 72.9643C102.449 74.7187 104.562 76.4185 106.319 76.6156C108.076 76.8127 109.776 74.7045 109.971 72.9501L108.527 43.6353C108.562 38.6237 112.214 34.9583 116.979 34.4479C119.288 34.3934 121.297 35.1412 123.008 36.6915C124.719 38.2418 125.729 40.4449 125.637 43.1513L126.135 108.2C125.972 136.917 103.463 160.514 75.3636 161.02Z" fill="#004FD4"/>
<circle cx="45" cy="29" r="5" fill="#FFCD5B"/>
</svg>
